# xmcd
#
# Track frame offsets: 
#        150
#        15713
#        28973
#        46399
#        57258
#        70484
#        81425
#        93868
#        104734
#        116587
#        130576
#        142756
#        155241
#        179662
#
# Disc length: 2612 seconds
#
# Revision: 5
# Processed by: cddbd v1.5.2PL0 Copyright (c) Steve Scherf et al.
# Submitted via: ExactAudioCopy v1.0b1
#
DISCID=c90a320e
DTITLE=Steve James and Del Rey - Tonight
DYEAR=2004
DGENRE=Acoustic Blues/String Band
TTITLE0=Nadine
TTITLE1=Baltimore
TTITLE2=Precious Five
TTITLE3=Tappin' That Thing
TTITLE4=Truck Driver's Roll
TTITLE5=Changette
TTITLE6=I Love My Guitar
TTITLE7=Alta Vista Serenade
TTITLE8=As Long As I Can See You Smile
TTITLE9=I'm Sailing
TTITLE10=Black Stick
TTITLE11=Josie Bush
TTITLE12=The Real Guitar Rag
TTITLE13=Little Baby
EXTD=
EXTT0=
EXTT1=
EXTT2=
EXTT3=
EXTT4=
EXTT5=
EXTT6=
EXTT7=
EXTT8=
EXTT9=
EXTT10=
EXTT11=
EXTT12=
EXTT13=
PLAYORDER=
